# xmcd
#
# Track frame offsets:
#   150
#   17942
#   35077
#   54744
#   70166
#   89193
#   106831
#   119683
#
# Disc length: 1800 seconds
#
# Revision: 0
# Processed by: cddbd v1.5.2PL0 Copyright (c) Steve Scherf et al.
# Submitted via: GXTranscoder 2.24.2980
#
DISCID=76070608
DTITLE=Bonnie J Gordon - The unchained continent of water
DYEAR=1998
DGENRE=Blues
TTITLE0=going with the flow
TTITLE1=life s to learn
TTITLE2=late bloomer
TTITLE3=march 13
TTITLE4=the freedom
TTITLE5=the gift
TTITLE6=auf wiedersehen
TTITLE7=you want that song
EXTD=
EXTT0=
EXTT1=
EXTT2=
EXTT3=
EXTT4=
EXTT5=
EXTT6=
EXTT7=
PLAYORDER=
